<svg width="143" height="23" viewBox="0 0 143 23" fill="none" xmlns="http://www.w3.org/2000/svg">
<path d="M0.26 15.79H4.55C4.59 16.69 5.02 17.37 5.84 17.83C6.68 18.29 7.66 18.52 8.78 18.52C11.46 18.52 12.8 17.64 12.8 15.88C12.8 15.42 12.69 15.02 12.47 14.68C12.27 14.34 12.04 14.09 11.78 13.93C11.52 13.75 11.15 13.6 10.67 13.48C10.19 13.36 9.79 13.28 9.47 13.24C9.17 13.2 8.75 13.16 8.21 13.12C3.11 12.68 0.56 10.69 0.56 7.15C0.56 4.97 1.32 3.33 2.84 2.23C4.36 1.11 6.26 0.549999 8.54 0.549999C9.58 0.549999 10.55 0.669999 11.45 0.91C12.37 1.13 13.22 1.48 14 1.96C14.78 2.44 15.4 3.11 15.86 3.97C16.32 4.81 16.55 5.79 16.55 6.91H12.35C12.23 6.11 11.81 5.51 11.09 5.11C10.37 4.69 9.52 4.48 8.54 4.48C7.58 4.48 6.74 4.72 6.02 5.2C5.32 5.66 4.97 6.28 4.97 7.06C4.97 7.9 5.31 8.5 5.99 8.86C6.69 9.2 7.69 9.44 8.99 9.58C10.25 9.7 11.31 9.86 12.17 10.06C13.05 10.26 13.9 10.58 14.72 11.02C15.56 11.46 16.19 12.09 16.61 12.91C17.03 13.71 17.24 14.7 17.24 15.88C17.24 17.06 17 18.09 16.52 18.97C16.04 19.85 15.38 20.53 14.54 21.01C13.72 21.49 12.83 21.84 11.87 22.06C10.93 22.3 9.91 22.43 8.81 22.45C6.49 22.45 4.48 21.88 2.78 20.74C1.1 19.58 0.26 17.93 0.26 15.79ZM34.898 22H30.668V13.63C30.708 12.69 30.458 11.94 29.918 11.38C29.398 10.82 28.738 10.54 27.938 10.54C27.098 10.54 26.378 10.83 25.778 11.41C25.178 11.97 24.878 12.74 24.878 13.72V22H20.678V12.01C20.678 11.57 20.668 11.26 20.648 11.08C20.648 10.9 20.598 10.72 20.498 10.54C20.418 10.36 20.278 10.25 20.078 10.21C19.898 10.15 19.638 10.12 19.298 10.12V7.51C22.818 6.91 24.578 7.56 24.578 9.46C24.958 8.68 25.578 8.11 26.438 7.75C27.318 7.39 28.238 7.21 29.198 7.21C31.138 7.21 32.568 7.8 33.488 8.98C34.428 10.16 34.898 11.71 34.898 13.63V22ZM45.3458 7.18C47.9258 7.18 49.7758 7.96 50.8958 9.52C52.0358 11.08 52.3258 13.12 51.7658 15.64H41.9558C42.0958 17.64 43.3758 18.73 45.7958 18.91C46.6358 18.95 47.2758 18.94 47.7158 18.88C49.0758 18.72 50.2258 18.43 51.1658 18.01L51.6458 21.07C49.8258 21.93 47.9558 22.36 46.0358 22.36C43.5758 22.4 41.5758 21.72 40.0358 20.32C38.5158 18.92 37.7558 17.01 37.7558 14.59C37.7958 12.21 38.5458 10.38 40.0058 9.1C41.4858 7.82 43.2658 7.18 45.3458 7.18ZM45.3458 10.39C44.5058 10.39 43.7758 10.62 43.1558 11.08C42.5358 11.52 42.1458 12.14 41.9858 12.94H48.3458C48.3858 12.06 48.1158 11.42 47.5358 11.02C46.9558 10.6 46.2258 10.39 45.3458 10.39ZM64.3899 19.78C63.9899 20.62 63.3099 21.25 62.3499 21.67C61.4099 22.07 60.4199 22.27 59.3799 22.27C57.9799 22.27 56.7599 21.86 55.7199 21.04C54.6999 20.2 54.1699 19.1 54.1299 17.74C54.0499 16.04 54.5399 14.75 55.5999 13.87C56.6599 12.97 58.0399 12.52 59.7399 12.52C61.3199 12.52 62.5999 12.83 63.5799 13.45V12.46C63.5799 11.08 62.3799 10.39 59.9799 10.39C58.2399 10.39 56.8499 10.68 55.8099 11.26L55.2699 8.26C56.7899 7.54 58.5999 7.18 60.6999 7.18C65.2999 7.18 67.5999 8.98 67.5999 12.58V17.8C67.5999 18.2 67.5999 18.48 67.5999 18.64C67.6199 18.8 67.6699 18.99 67.7499 19.21C67.8299 19.41 67.9599 19.54 68.1399 19.6C68.3399 19.66 68.6099 19.68 68.9499 19.66L68.9799 22C68.2199 22.14 67.4999 22.21 66.8199 22.21C66.1399 22.21 65.5599 22.01 65.0799 21.61C64.6199 21.19 64.3899 20.58 64.3899 19.78ZM63.4899 16.81V16.06C62.6699 15.5 61.6699 15.22 60.4899 15.22C59.7899 15.26 59.2199 15.48 58.7799 15.88C58.3399 16.26 58.1599 16.79 58.2399 17.47C58.2799 17.97 58.4899 18.36 58.8699 18.64C59.2499 18.9 59.6999 19.03 60.2199 19.03C60.9999 19.03 61.7199 18.84 62.3799 18.46C63.0599 18.06 63.4299 17.51 63.4899 16.81ZM75.9013 12.85H76.9213C78.4613 12.85 79.5413 12.38 80.1613 11.44C80.7813 10.48 81.0913 9.17 81.0913 7.51H85.0513C85.0913 9.19 84.8613 10.63 84.3613 11.83C83.8613 13.01 82.9413 13.95 81.6013 14.65L85.7413 21.55V21.97H81.5113L78.0613 15.97C77.7013 16.09 77.3013 16.15 76.8613 16.15H75.9013V21.97H71.7313V0.0699998H75.9013V12.85ZM98.8147 10.93L107.245 0.939999H108.865V22H104.365V10.63L99.0847 17.23H98.5147L93.2347 10.63V22H88.7347V0.939999H90.3847L98.8147 10.93ZM122.281 19.78C121.881 20.62 121.201 21.25 120.241 21.67C119.301 22.07 118.311 22.27 117.271 22.27C115.871 22.27 114.651 21.86 113.611 21.04C112.591 20.2 112.061 19.1 112.021 17.74C111.941 16.04 112.431 14.75 113.491 13.87C114.551 12.97 115.931 12.52 117.631 12.52C119.211 12.52 120.491 12.83 121.471 13.45V12.46C121.471 11.08 120.271 10.39 117.871 10.39C116.131 10.39 114.741 10.68 113.701 11.26L113.161 8.26C114.681 7.54 116.491 7.18 118.591 7.18C123.191 7.18 125.491 8.98 125.491 12.58V17.8C125.491 18.2 125.491 18.48 125.491 18.64C125.511 18.8 125.561 18.99 125.641 19.21C125.721 19.41 125.851 19.54 126.031 19.6C126.231 19.66 126.501 19.68 126.841 19.66L126.871 22C126.111 22.14 125.391 22.21 124.711 22.21C124.031 22.21 123.451 22.01 122.971 21.61C122.511 21.19 122.281 20.58 122.281 19.78ZM121.381 16.81V16.06C120.561 15.5 119.561 15.22 118.381 15.22C117.681 15.26 117.111 15.48 116.671 15.88C116.231 16.26 116.051 16.79 116.131 17.47C116.171 17.97 116.381 18.36 116.761 18.64C117.141 18.9 117.591 19.03 118.111 19.03C118.891 19.03 119.611 18.84 120.271 18.46C120.951 18.06 121.321 17.51 121.381 16.81ZM135.652 16.9H135.562L133.852 19.78L132.292 22H128.092V21.52L133.102 14.32L128.812 7.99V7.54H132.832L134.122 9.43L135.502 11.86H135.592L136.942 9.4L138.202 7.54H142.492V8.02L138.052 14.47L142.942 21.52V22H138.892L137.272 19.66L135.652 16.9Z" fill="white"/>
</svg>
