<svg width="143" height="23" fill="none" xmlns="http://www.w3.org/2000/svg"><path d="M.26 15.79h4.29c.04.9.47 1.58 1.29 2.04.84.46 1.82.69 2.94.69 2.68 0 4.02-.88 4.02-2.64 0-.46-.11-.86-.33-1.2-.2-.34-.43-.59-.69-.75-.26-.18-.63-.33-1.11-.45-.48-.12-.88-.2-1.2-.24-.3-.04-.72-.08-1.26-.12-5.1-.44-7.65-2.43-7.65-5.97 0-2.18.76-3.82 2.28-4.92C4.36 1.11 6.26.55 8.54.55c1.04 0 2.01.12 2.91.36.92.22 1.77.57 2.55 1.05.78.48 1.4 1.15 1.86 2.01.46.84.69 1.82.69 2.94h-4.2c-.12-.8-.54-1.4-1.26-1.8-.72-.42-1.57-.63-2.55-.63-.96 0-1.8.24-2.52.72-.7.46-1.05 1.08-1.05 1.86 0 .84.34 1.44 1.02 1.8.7.34 1.7.58 3 .72 1.26.12 2.32.28 3.18.48.88.2 1.73.52 2.55.96.84.44 1.47 1.07 1.89 1.89.42.8.63 1.79.63 2.97 0 1.18-.24 2.21-.72 3.09-.48.88-1.14 1.56-1.98 2.04-.82.48-1.71.83-2.67 1.05-.94.24-1.96.37-3.06.39-2.32 0-4.33-.57-6.03-1.71C1.1 19.58.26 17.93.26 15.79zM34.898 22h-4.23v-8.37c.04-.94-.21-1.69-.75-2.25-.52-.56-1.18-.84-1.98-.84-.84 0-1.56.29-2.16.87-.6.56-.9 1.33-.9 2.31V22h-4.2v-9.99c0-.44-.01-.75-.03-.93 0-.18-.05-.36-.15-.54a.55.55 0 00-.42-.33c-.18-.06-.44-.09-.78-.09V7.51c3.52-.6 5.28.05 5.28 1.95.38-.78 1-1.35 1.86-1.71.88-.36 1.8-.54 2.76-.54 1.94 0 3.37.59 4.29 1.77.94 1.18 1.41 2.73 1.41 4.65V22zM45.346 7.18c2.58 0 4.43.78 5.55 2.34 1.14 1.56 1.43 3.6.87 6.12h-9.81c.14 2 1.42 3.09 3.84 3.27.84.04 1.48.03 1.92-.03 1.36-.16 2.51-.45 3.45-.87l.48 3.06c-1.82.86-3.69 1.29-5.61 1.29-2.46.04-4.46-.64-6-2.04-1.52-1.4-2.28-3.31-2.28-5.73.04-2.38.79-4.21 2.25-5.49 1.48-1.28 3.26-1.92 5.34-1.92zm0 3.21c-.84 0-1.57.23-2.19.69-.62.44-1.01 1.06-1.17 1.86h6.36c.04-.88-.23-1.52-.81-1.92-.58-.42-1.31-.63-2.19-.63zm19.044 9.39c-.4.84-1.08 1.47-2.04 1.89-.94.4-1.93.6-2.97.6-1.4 0-2.62-.41-3.66-1.23-1.02-.84-1.55-1.94-1.59-3.3-.08-1.7.41-2.99 1.47-3.87 1.06-.9 2.44-1.35 4.14-1.35 1.58 0 2.86.31 3.84.93v-.99c0-1.38-1.2-2.07-3.6-2.07-1.74 0-3.13.29-4.17.87l-.54-3c1.52-.72 3.33-1.08 5.43-1.08 4.6 0 6.9 1.8 6.9 5.4v6.06c.02.16.07.35.15.57.08.2.21.33.39.39.2.06.47.08.81.06l.03 2.34c-.76.14-1.48.21-2.16.21-.68 0-1.26-.2-1.74-.6-.46-.42-.69-1.03-.69-1.83zm-.9-2.97v-.75c-.82-.56-1.82-.84-3-.84-.7.04-1.27.26-1.71.66-.44.38-.62.91-.54 1.59.04.5.25.89.63 1.17.38.26.83.39 1.35.39.78 0 1.5-.19 2.16-.57.68-.4 1.05-.95 1.11-1.65zm12.41-3.96h1.02c1.54 0 2.62-.47 3.24-1.41.62-.96.93-2.27.93-3.93h3.96c.04 1.68-.19 3.12-.69 4.32-.5 1.18-1.42 2.12-2.76 2.82l4.14 6.9v.42h-4.23l-3.45-6c-.36.12-.76.18-1.2.18h-.96v5.82h-4.17V.07h4.17v12.78zm22.914-1.92l8.43-9.99h1.62V22h-4.5V10.63l-5.28 6.6h-.57l-5.28-6.6V22h-4.5V.94h1.65l8.43 9.99zm23.466 8.85c-.4.84-1.08 1.47-2.04 1.89-.94.4-1.93.6-2.97.6-1.4 0-2.62-.41-3.66-1.23-1.02-.84-1.55-1.94-1.59-3.3-.08-1.7.41-2.99 1.47-3.87 1.06-.9 2.44-1.35 4.14-1.35 1.58 0 2.86.31 3.84.93v-.99c0-1.38-1.2-2.07-3.6-2.07-1.74 0-3.13.29-4.17.87l-.54-3c1.52-.72 3.33-1.08 5.43-1.08 4.6 0 6.9 1.8 6.9 5.4v6.06c.02.16.07.35.15.57.08.2.21.33.39.39.2.06.47.08.81.06l.03 2.34c-.76.14-1.48.21-2.16.21-.68 0-1.26-.2-1.74-.6-.46-.42-.69-1.03-.69-1.83zm-.9-2.97v-.75c-.82-.56-1.82-.84-3-.84-.7.04-1.27.26-1.71.66-.44.38-.62.91-.54 1.59.04.5.25.89.63 1.17.38.26.83.39 1.35.39.78 0 1.5-.19 2.16-.57.68-.4 1.05-.95 1.11-1.65zm14.271.09h-.09l-1.71 2.88-1.56 2.22h-4.2v-.48l5.01-7.2-4.29-6.33v-.45h4.02l1.29 1.89 1.38 2.43h.09l1.35-2.46 1.26-1.86h4.29v.48l-4.44 6.45 4.89 7.05V22h-4.05l-1.62-2.34-1.62-2.76z" fill="#fff"/></svg>