<svg width="80" height="80" viewBox="0 0 80 80" fill="none" xmlns="http://www.w3.org/2000/svg">
<circle cx="40" cy="40" r="40" fill="#444B58"/>
<path d="M53.9999 36.2857H49.2454L44.2502 27.4507C44.0025 27.0118 43.465 26.8685 43.0497 27.1324C42.6353 27.3963 42.5011 27.9666 42.7498 28.4065L47.2046 36.2857H32.7954L37.2502 28.4064C37.4989 27.9666 37.3647 27.3962 36.9503 27.1323C36.5342 26.8685 35.9984 27.0117 35.7498 27.4506L30.7546 36.2857H26V38.1428H27.8991L30.1221 50.7266C30.3545 52.0442 31.4397 53 32.7026 53H47.2974C48.5603 53 49.6455 52.0442 49.8771 50.7275L52.1008 38.1428H54L53.9999 36.2857ZM48.1569 50.3857C48.08 50.8246 47.7186 51.1429 47.2973 51.1429H32.7026C32.2814 51.1429 31.92 50.8246 31.8422 50.3848L29.679 38.1428H50.321L48.1569 50.3857Z" fill="white"/>
</svg>
