<svg width="80" height="80" fill="none" xmlns="http://www.w3.org/2000/svg"><circle cx="40" cy="40" r="40" fill="#444B58"/><path d="M54 36.286h-4.755L44.25 27.45c-.248-.44-.785-.582-1.2-.319-.415.264-.549.835-.3 1.274l4.455 7.88h-14.41l4.455-7.88c.249-.44.115-1.01-.3-1.274-.416-.264-.952-.12-1.2.319l-4.995 8.835H26v1.857h1.9l2.222 12.584C30.355 52.044 31.44 53 32.702 53h14.595c1.263 0 2.349-.956 2.58-2.273l2.224-12.584H54v-1.857zm-5.843 14.1c-.077.439-.438.757-.86.757H32.703c-.422 0-.783-.318-.86-.758l-2.164-12.242h20.642l-2.164 12.243z" fill="#fff"/></svg>